<svg width="256" height="256" viewBox="0 0 256 256" fill="none" xmlns="http://www.w3.org/2000/svg">
<g clip-path="url(#clip0_28_15)">
<path d="M128 189.625C162.035 189.625 189.625 162.035 189.625 128C189.625 93.9655 162.035 66.375 128 66.375C93.9655 66.375 66.375 93.9655 66.375 128C66.375 162.035 93.9655 189.625 128 189.625Z" fill="#ffffff"/>
<path d="M128 51.875C129.923 51.875 131.767 51.1112 133.127 49.7515C134.486 48.3919 135.25 46.5478 135.25 44.625V26.5C135.25 24.5772 134.486 22.7331 133.127 21.3735C131.767 20.0138 129.923 19.25 128 19.25C126.077 19.25 124.233 20.0138 122.873 21.3735C121.514 22.7331 120.75 24.5772 120.75 26.5V44.625C120.75 46.5478 121.514 48.3919 122.873 49.7515C124.233 51.1112 126.077 51.875 128 51.875Z" fill="#ffffff"/>
<path d="M63.9281 74.1687C65.2986 75.5029 67.1358 76.2494 69.0484 76.2494C70.9611 76.2494 72.7982 75.5029 74.1687 74.1687C75.5246 72.8096 76.286 70.9682 76.286 69.0484C76.286 67.1287 75.5246 65.2872 74.1687 63.9281L61.3906 51.0594C60.7406 50.2673 59.9319 49.6201 59.0167 49.1595C58.1014 48.6988 57.0999 48.4348 56.0764 48.3846C55.053 48.3343 54.0304 48.4989 53.0745 48.8676C52.1185 49.2364 51.2503 49.8012 50.5258 50.5258C49.8012 51.2503 49.2364 52.1185 48.8676 53.0745C48.4989 54.0304 48.3343 55.053 48.3846 56.0764C48.4348 57.0999 48.6988 58.1014 49.1595 59.0167C49.6201 59.9319 50.2673 60.7406 51.0594 61.3906L63.9281 74.1687Z" fill="#ffffff"/>
<path d="M51.875 128C51.875 126.077 51.1112 124.233 49.7515 122.873C48.3919 121.514 46.5478 120.75 44.625 120.75H26.5C24.5772 120.75 22.7331 121.514 21.3735 122.873C20.0138 124.233 19.25 126.077 19.25 128C19.25 129.923 20.0138 131.767 21.3735 133.127C22.7331 134.486 24.5772 135.25 26.5 135.25H44.625C46.5478 135.25 48.3919 134.486 49.7515 133.127C51.1112 131.767 51.875 129.923 51.875 128Z" fill="#ffffff"/>
<path d="M63.9281 181.831L51.0594 194.609C49.698 195.984 48.9342 197.84 48.9342 199.775C48.9342 201.71 49.698 203.566 51.0594 204.941C52.461 206.255 54.3034 206.999 56.225 207.025C58.1502 207.017 59.9989 206.271 61.3906 204.941L74.1688 192.072C75.4184 190.693 76.0898 188.886 76.044 187.025C75.9982 185.165 75.2386 183.393 73.9227 182.077C72.6067 180.761 70.8351 180.002 68.9746 179.956C67.1141 179.91 65.3073 180.582 63.9281 181.831V181.831Z" fill="#ffffff"/>
<path d="M128 204.125C126.077 204.125 124.233 204.889 122.873 206.248C121.514 207.608 120.75 209.452 120.75 211.375V229.5C120.75 231.423 121.514 233.267 122.873 234.627C124.233 235.986 126.077 236.75 128 236.75C129.923 236.75 131.767 235.986 133.127 234.627C134.486 233.267 135.25 231.423 135.25 229.5V211.375C135.25 209.452 134.486 207.608 133.127 206.248C131.767 204.889 129.923 204.125 128 204.125Z" fill="#ffffff"/>
<path d="M192.072 181.831C190.693 180.582 188.886 179.91 187.025 179.956C185.165 180.002 183.393 180.761 182.077 182.077C180.761 183.393 180.002 185.165 179.956 187.025C179.91 188.886 180.582 190.693 181.831 192.072L194.609 204.941C196.001 206.271 197.85 207.017 199.775 207.025C201.697 206.999 203.539 206.255 204.941 204.941C206.302 203.566 207.066 201.71 207.066 199.775C207.066 197.84 206.302 195.984 204.941 194.609L192.072 181.831Z" fill="#ffffff"/>
<path d="M229.5 120.75H211.375C209.452 120.75 207.608 121.514 206.248 122.873C204.889 124.233 204.125 126.077 204.125 128C204.125 129.923 204.889 131.767 206.248 133.127C207.608 134.486 209.452 135.25 211.375 135.25H229.5C231.423 135.25 233.267 134.486 234.627 133.127C235.986 131.767 236.75 129.923 236.75 128C236.75 126.077 235.986 124.233 234.627 122.873C233.267 121.514 231.423 120.75 229.5 120.75Z" fill="#ffffff"/>
<path d="M186.997 76.2531C187.939 76.2614 188.873 76.0813 189.745 75.7233C190.616 75.3654 191.408 74.8368 192.072 74.1687L204.941 61.3906C206.097 59.9819 206.688 58.1936 206.598 56.3735C206.509 54.5534 205.746 52.8315 204.457 51.543C203.168 50.2544 201.447 49.4912 199.626 49.4018C197.806 49.3124 196.018 49.9032 194.609 51.0593L181.831 63.9281C180.475 65.2872 179.714 67.1286 179.714 69.0484C179.714 70.9682 180.475 72.8096 181.831 74.1687C182.506 74.8479 183.312 75.3829 184.2 75.7412C185.088 76.0995 186.04 76.2736 186.997 76.2531V76.2531Z" fill="#ffffff"/>
</g>
<defs>
<clipPath id="clip0_28_15">
<rect width="232" height="232" fill="white" transform="translate(12 12)"/>
</clipPath>
</defs>
</svg>
